<svg width="40" height="41" viewBox="0 0 40 41" fill="none" xmlns="http://www.w3.org/2000/svg">
<path d="M19.9909 40.5823C19.3911 40.5823 18.7823 40.4395 18.2541 40.1696L12.7304 37.2725C11.9068 36.8597 12.3096 36.717 12.5783 36.6375C13.6793 36.2962 13.9031 36.2249 15.0759 35.6295C15.2013 35.5661 15.3625 35.5897 15.4877 35.6613L19.7312 37.8916C19.8834 37.9709 20.0981 37.9709 20.2414 37.8916L36.7768 29.4303C36.9291 29.3509 37.0274 29.1922 37.0274 29.0335V12.1112C37.0274 11.9445 36.9291 11.7937 36.768 11.7065L20.2415 3.25316C20.0894 3.17376 19.8835 3.17376 19.7313 3.25316L3.21386 11.7143C3.05262 11.7937 2.95425 11.9524 2.95425 12.1191V29.0335C2.95425 29.1922 3.05262 29.3509 3.21386 29.4225L7.74395 31.7402C10.2059 32.8275 11.7099 31.5496 11.7099 30.256V13.5557C11.7099 13.3176 11.9247 13.1351 12.1934 13.1351H14.2883C14.5479 13.1351 14.7716 13.3176 14.7716 13.5557V30.2639C14.7716 33.1689 12.9811 34.8357 9.87473 34.8357C8.91669 34.8357 8.16471 34.8357 6.06984 33.915L1.73679 31.7005C0.662428 31.1528 0 30.1288 0 29.0257V12.1112C0 11.0159 0.662428 9.98406 1.73679 9.4364L18.2541 0.975147C19.3015 0.451318 20.6893 0.451318 21.7277 0.975147L38.2633 9.44423C39.3376 9.99188 40 11.0158 40 12.1191V29.0335C40 30.1288 39.3376 31.1528 38.2633 31.7084L21.7277 40.1696C21.1995 40.4395 20.5995 40.5823 19.9909 40.5823ZM33.3393 23.9061C33.3393 20.7391 30.9221 19.8978 25.8461 19.3025C20.7071 18.6992 20.188 18.3897 20.188 17.3261C20.188 16.4451 20.6267 15.2703 24.4315 15.2703C27.8246 15.2703 29.078 15.9212 29.5971 17.9532C29.6419 18.1437 29.8391 18.2865 30.0626 18.2865H32.2115C32.3456 18.2865 32.4709 18.239 32.5606 18.1516C32.6502 18.0644 32.6949 17.9452 32.6856 17.8261C32.3546 14.3259 29.7314 12.6987 24.4315 12.6987C19.7136 12.6987 16.9025 14.4608 16.9025 17.4214C16.9025 20.628 19.7045 21.5172 24.2255 21.9138C29.6419 22.3822 30.0626 23.0886 30.0626 24.0332C30.0626 25.6684 28.5767 26.3666 25.0941 26.3666C20.7163 26.3666 19.7583 25.3904 19.436 23.4618C19.4002 23.2554 19.2032 23.1046 18.9616 23.1046H16.8218C16.5532 23.1046 16.3475 23.2952 16.3475 23.5252C16.3475 25.9939 17.8604 28.9386 25.1031 28.9386C30.3312 28.9306 33.3393 27.0967 33.3393 23.9061Z" fill="#539E43"/>
</svg>
