<svg width="40" height="40" viewBox="0 0 40 40" fill="none" xmlns="http://www.w3.org/2000/svg">
<g clip-path="url(#clip0_125_598)">
<path d="M10.7003 25.1745C11.0738 24.9591 11.2017 24.4809 10.9862 24.1073C10.7705 23.7341 10.2926 23.6059 9.91905 23.8214C9.54552 24.0371 9.41734 24.5153 9.6331 24.8886C9.84856 25.2621 10.3268 25.3903 10.7003 25.1745Z" fill="black"/>
<path d="M7.49877 30.5667L11.4331 37.3815C12.2821 38.8537 14.1919 39.3987 15.7022 38.5256C17.1966 37.662 17.7103 35.7525 16.8457 34.2568L14.5019 30.1968L16.5317 29.0249C16.9052 28.8088 17.0334 28.3312 16.8176 27.9577L15.8017 26.1981C15.9228 26.1746 16.7193 26.0183 30.7657 23.2629C32.5021 23.1686 33.5425 21.2695 32.6654 19.7512L30.069 15.2542L31.7282 12.741C31.8912 12.4938 31.9009 12.1761 31.7529 11.9198L30.1904 9.2135C30.0424 8.95715 29.7613 8.80701 29.4668 8.8244L26.4612 9.00476L23.5788 4.01208C23.1613 3.28882 22.4133 2.85089 21.5784 2.84052C21.5683 2.84021 21.5585 2.84021 21.5484 2.84021C20.7416 2.84021 20.0091 3.24182 19.5752 3.92084L9.36949 16.9219L2.73467 20.7525C0.12511 22.2585 -0.778821 25.6063 0.73302 28.2229C2.11425 30.6155 5.02623 31.5566 7.49877 30.5667ZM15.4928 35.0384C15.9244 35.7849 15.6689 36.7401 14.9203 37.1725C14.1693 37.6068 13.2129 37.34 12.7862 36.6006L8.87999 29.8339L11.5863 28.2714C16.1072 36.1028 15.4202 34.913 15.4928 35.0384ZM13.7207 28.8433L12.9394 27.4902L14.2926 26.7089L15.0738 28.0621L13.7207 28.8433ZM29.0787 10.4128L30.1584 12.283L29.1955 13.7411L27.3346 10.5175L29.0787 10.4128ZM20.8819 4.77747C21.0916 4.43445 21.4242 4.39905 21.5591 4.40271C21.6925 4.40424 22.0248 4.44574 22.2253 4.79303L31.3122 20.5325C31.6083 21.0449 31.2485 21.6891 30.6549 21.7037C30.5484 21.7062 30.4993 21.7254 30.2264 21.7764L20.6143 5.1275C20.816 4.8681 20.842 4.84308 20.8819 4.77747ZM19.5746 6.45197L28.6056 22.0944L14.9759 24.7677L10.8316 17.5897L19.5746 6.45197ZM2.08617 27.4417C1.74315 26.8481 1.56188 26.1743 1.56188 25.4925C1.56188 24.0991 2.31078 22.8015 3.51592 22.1057L9.60509 18.59L13.5113 25.3558L7.42217 28.8717C5.55663 29.9484 3.16313 29.3069 2.08617 27.4417Z" fill="black"/>
<path d="M8.27995 25.6698C8.06419 25.2962 7.58629 25.1681 7.21275 25.3838L5.8596 26.1651C5.48668 26.3805 5.00786 26.2521 4.7924 25.8791C4.57664 25.5056 4.09874 25.3774 3.7252 25.5932C3.35167 25.8089 3.2235 26.2869 3.43925 26.6604C4.08226 27.7743 5.51659 28.167 6.64085 27.5182L7.994 26.737C8.36754 26.5212 8.49571 26.0436 8.27995 25.6698Z" fill="black"/>
<path d="M38.8388 4.51144L34.4855 6.93392C34.1086 7.14388 33.9728 7.61965 34.1828 7.99654C34.3921 8.37313 34.8676 8.50954 35.2454 8.29928L39.5984 5.87679C39.9756 5.66683 40.1111 5.19106 39.9012 4.81417C39.6915 4.43697 39.2157 4.30147 38.8388 4.51144Z" fill="black"/>
<path d="M38.3822 12.6029L35.3637 11.7942C34.9469 11.6825 34.5184 11.9297 34.4067 12.3465C34.295 12.7634 34.5425 13.1916 34.9594 13.3033L37.9782 14.112C38.3975 14.2246 38.8238 13.9734 38.9349 13.5596C39.0466 13.1427 38.7991 12.7143 38.3822 12.6029Z" fill="black"/>
<path d="M30.7967 1.67295L29.987 4.69175C29.8753 5.10862 30.1225 5.53678 30.5394 5.64878C30.956 5.76017 31.3844 5.51359 31.4964 5.09641L32.3058 2.07761C32.4175 1.66074 32.1703 1.23228 31.7534 1.12058C31.3368 1.00889 30.9084 1.25608 30.7967 1.67295Z" fill="black"/>
</g>
<defs>
<clipPath id="clip0_125_598">
<rect width="40" height="40" fill="white"/>
</clipPath>
</defs>
</svg>
