<svg width="38" height="34" viewBox="0 0 38 34" fill="none" xmlns="http://www.w3.org/2000/svg">
<path d="M30.912 15.999H34.0627C34.1887 16.4685 34.4811 16.8761 34.8854 17.146C35.2896 17.416 35.7782 17.5297 36.2601 17.4662C36.742 17.4026 37.1844 17.1661 37.5049 16.8006C37.8253 16.4351 38.002 15.9656 38.002 15.4795C38.002 14.9934 37.8253 14.5239 37.5049 14.1584C37.1844 13.7929 36.742 13.5563 36.2601 13.4928C35.7782 13.4292 35.2896 13.543 34.8854 13.8129C34.4811 14.0828 34.1887 14.4905 34.0627 14.9599H30.912V12.4436H33.2499C33.3325 12.4436 33.4139 12.4239 33.4873 12.3862C33.5608 12.3484 33.6242 12.2937 33.6723 12.2266L35.2933 9.96234C35.748 10.1322 36.2491 10.131 36.703 9.9589C37.1569 9.78682 37.5329 9.45563 37.7608 9.02699C37.9887 8.59835 38.0531 8.10148 37.9419 7.62892C37.8307 7.15636 37.5516 6.74031 37.1564 6.45826C36.7613 6.17621 36.2771 6.04737 35.7941 6.09575C35.311 6.14413 34.862 6.36642 34.5307 6.72123C34.1994 7.07604 34.0083 7.53919 33.993 8.02441C33.9777 8.50964 34.1394 8.98387 34.4478 9.3588L32.9827 11.4046H30.9117V9.47814C30.9117 9.34035 30.8569 9.20821 30.7595 9.11078C30.6621 9.01335 30.5299 8.95861 30.3922 8.95861C29.5886 8.95846 28.8056 8.70453 28.1549 8.23305L31.0212 4.70024C31.4668 4.90009 31.9698 4.93111 32.4365 4.78753C32.9032 4.64395 33.3018 4.33556 33.5579 3.91984C33.8141 3.50412 33.9103 3.00944 33.8287 2.528C33.7471 2.04657 33.4932 1.61123 33.1144 1.30314C32.7356 0.995048 32.2576 0.835223 31.7697 0.853455C31.2817 0.871687 30.817 1.06673 30.4622 1.40224C30.1074 1.73774 29.8868 2.19081 29.8413 2.67699C29.7959 3.16317 29.9288 3.64929 30.2152 4.04474L27.3982 7.51817C26.8512 6.83905 26.553 5.99322 26.5533 5.1212C26.5532 4.98344 26.4984 4.85134 26.401 4.75393C26.3036 4.65651 26.1715 4.60175 26.0337 4.60167H11.9657C11.828 4.60175 11.6959 4.65651 11.5984 4.75393C11.501 4.85134 11.4463 4.98344 11.4462 5.1212C11.4464 5.99322 11.1483 6.83905 10.6013 7.51817L7.78424 4.04444C8.06952 3.64999 8.20168 3.16529 8.1561 2.68062C8.11052 2.19596 7.89031 1.74439 7.53648 1.41005C7.18266 1.07571 6.71935 0.881396 6.23289 0.863311C5.74642 0.845226 5.26997 1.0046 4.8923 1.31175C4.51462 1.6189 4.26148 2.05286 4.18004 2.53281C4.0986 3.01275 4.19441 3.50593 4.44962 3.92047C4.70483 4.33501 5.10204 4.64264 5.56724 4.78604C6.03244 4.92945 6.53391 4.89884 6.97822 4.69994L9.84455 8.23275C9.19384 8.70423 8.41086 8.95816 7.6073 8.95831C7.46951 8.95831 7.33736 9.01305 7.23993 9.11048C7.1425 9.20791 7.08777 9.34006 7.08777 9.47784V11.4043H5.01706L3.55228 9.3585C3.86523 8.98017 4.02985 8.50091 4.01544 8.01014C4.00102 7.51936 3.80855 7.05059 3.47394 6.69129C3.13933 6.33198 2.68542 6.10668 2.19692 6.05741C1.70841 6.00814 1.21866 6.13828 0.819042 6.42354C0.419425 6.7088 0.137234 7.1297 0.0251156 7.60772C-0.0870024 8.08573 -0.0213889 8.58821 0.209715 9.0214C0.440818 9.4546 0.821627 9.78892 1.28109 9.96201C1.74056 10.1351 2.24731 10.1351 2.70678 9.96205L4.32772 12.2263C4.37577 12.2935 4.43913 12.3482 4.51254 12.386C4.58595 12.4238 4.66731 12.4435 4.74988 12.4436H7.08777V14.9599H3.93703C3.81101 14.4905 3.51864 14.0828 3.11439 13.8129C2.71013 13.543 2.22154 13.4292 1.73963 13.4928C1.25772 13.5563 0.815336 13.7929 0.494879 14.1584C0.174422 14.5239 -0.00226033 14.9934 -0.00226033 15.4795C-0.00226033 15.9656 0.174422 16.4351 0.494879 16.8006C0.815336 17.1661 1.25772 17.4026 1.73963 17.4662C2.22154 17.5297 2.71013 17.416 3.11439 17.146C3.51864 16.8761 3.81101 16.4685 3.93703 15.999H7.08777V18.9277C7.08777 19.058 7.09519 19.1871 7.09964 19.3169H4.52722C4.43088 19.3169 4.33645 19.3437 4.25446 19.3943C4.17247 19.4449 4.10615 19.5173 4.06291 19.6034L2.40753 22.9019C1.92873 22.801 1.42957 22.8777 1.00312 23.1176C0.576664 23.3575 0.252028 23.7444 0.0897413 24.206C-0.0725456 24.6676 -0.061406 25.1725 0.121083 25.6266C0.303572 26.0806 0.644954 26.4527 1.08158 26.6736C1.5182 26.8945 2.02025 26.9491 2.49414 26.8271C2.96802 26.7052 3.38138 26.4151 3.65714 26.0109C3.9329 25.6066 4.05224 25.1159 3.99291 24.6302C3.93358 24.1445 3.69963 23.697 3.33467 23.371L4.84785 20.3548H7.18425C7.49552 22.7145 8.57305 24.9068 10.2513 26.5948L6.88292 29.4768C6.47985 29.199 5.98949 29.0772 5.50327 29.1343C5.01705 29.1913 4.56817 29.4232 4.24033 29.7868C3.91248 30.1503 3.72805 30.6207 3.72143 31.1102C3.71481 31.5997 3.88645 32.0749 4.20434 32.4472C4.52223 32.8195 4.96468 33.0635 5.44918 33.1336C5.93367 33.2038 6.42715 33.0953 6.83759 32.8285C7.24802 32.5617 7.54741 32.1547 7.6799 31.6834C7.8124 31.2121 7.76898 30.7087 7.55772 30.2671L11.0273 27.2984C11.2862 27.513 11.5528 27.7202 11.8336 27.9117L18.7072 32.6023C18.7936 32.6607 18.8956 32.6918 18.9999 32.6918C19.1042 32.6918 19.2061 32.6607 19.2926 32.6023L26.1661 27.9117C26.447 27.7202 26.7136 27.513 26.9725 27.2984L30.442 30.2671C30.2331 30.7058 30.1908 31.2055 30.323 31.6731C30.4551 32.1408 30.7527 32.5444 31.1604 32.8089C31.568 33.0734 32.0579 33.1807 32.5388 33.1108C33.0196 33.041 33.4587 32.7987 33.7743 32.4292C34.0898 32.0596 34.2603 31.588 34.2539 31.1021C34.2476 30.6163 34.0648 30.1492 33.7397 29.7881C33.4147 29.4269 32.9694 29.1962 32.4868 29.139C32.0043 29.0817 31.5174 29.2018 31.1168 29.4768L27.7485 26.5948C29.4267 24.9068 30.5042 22.7145 30.8155 20.3548H33.1516L34.6657 23.3698C34.3082 23.6917 34.0799 24.1325 34.0231 24.6102C33.9662 25.0879 34.0848 25.5699 34.3567 25.9667C34.6287 26.3635 35.0354 26.6481 35.5014 26.7675C35.9674 26.8869 36.4609 26.833 36.8901 26.6158C37.3194 26.3987 37.6551 26.033 37.835 25.5869C38.0149 25.1407 38.0266 24.6444 37.868 24.1903C37.7094 23.7361 37.3913 23.355 36.9728 23.1179C36.5543 22.8807 36.0639 22.8035 35.5928 22.9008L33.9374 19.6022C33.8942 19.5161 33.8279 19.4437 33.7459 19.3931C33.6639 19.3425 33.5695 19.3157 33.4731 19.3157H30.9007C30.9051 19.186 30.9126 19.0568 30.9126 18.9265L30.912 15.999ZM35.996 14.5146C36.1868 14.5146 36.3733 14.5712 36.532 14.6772C36.6907 14.7832 36.8143 14.9339 36.8874 15.1102C36.9604 15.2865 36.9795 15.4805 36.9423 15.6677C36.905 15.8549 36.8131 16.0268 36.6782 16.1617C36.5433 16.2967 36.3714 16.3885 36.1842 16.4258C35.997 16.463 35.803 16.4439 35.6267 16.3709C35.4504 16.2978 35.2997 16.1742 35.1937 16.0155C35.0877 15.8568 35.0311 15.6703 35.0311 15.4795C35.0314 15.2237 35.1332 14.9784 35.3141 14.7976C35.4949 14.6167 35.7402 14.5149 35.996 14.5146ZM35.996 7.12244C36.1868 7.12244 36.3733 7.17903 36.532 7.28504C36.6907 7.39106 36.8143 7.54175 36.8874 7.71805C36.9604 7.89436 36.9795 8.08835 36.9423 8.27551C36.905 8.46268 36.8131 8.63459 36.6782 8.76953C36.5433 8.90447 36.3714 8.99636 36.1842 9.03359C35.997 9.07082 35.803 9.05171 35.6267 8.97868C35.4504 8.90566 35.2997 8.78199 35.1937 8.62332C35.0877 8.46465 35.0311 8.27811 35.0311 8.08728C35.0317 7.83164 35.1335 7.58664 35.3144 7.40596C35.4952 7.22527 35.7403 7.12364 35.996 7.12333V7.12244ZM1.03894 8.08817C1.03894 7.89734 1.09553 7.7108 1.20155 7.55213C1.30756 7.39347 1.45825 7.2698 1.63455 7.19677C1.81086 7.12375 2.00485 7.10464 2.19202 7.14187C2.37918 7.1791 2.55109 7.27099 2.68603 7.40593C2.82097 7.54086 2.91286 7.71278 2.95009 7.89994C2.98732 8.0871 2.96821 8.2811 2.89518 8.4574C2.82216 8.6337 2.69849 8.78439 2.53982 8.89041C2.38115 8.99643 2.19461 9.05302 2.00378 9.05302C1.74799 9.0527 1.50276 8.95095 1.32188 8.77007C1.14101 8.5892 1.03925 8.34397 1.03894 8.08817ZM2.00378 16.4443C1.81296 16.4443 1.62641 16.3877 1.46775 16.2817C1.30908 16.1757 1.18541 16.025 1.11238 15.8487C1.03936 15.6724 1.02025 15.4784 1.05748 15.2912C1.09471 15.1041 1.1866 14.9322 1.32154 14.7972C1.45647 14.6623 1.62839 14.5704 1.81555 14.5332C2.00271 14.4959 2.19671 14.515 2.37301 14.5881C2.54931 14.6611 2.7 14.7848 2.80602 14.9434C2.91204 15.1021 2.96863 15.2886 2.96863 15.4795C2.96831 15.7353 2.86656 15.9805 2.68568 16.1614C2.50481 16.3422 2.25958 16.444 2.00378 16.4443ZM2.00378 25.8297C1.81296 25.8297 1.62641 25.7731 1.46775 25.6671C1.30908 25.5611 1.18541 25.4104 1.11238 25.2341C1.03936 25.0578 1.02025 24.8638 1.05748 24.6766C1.09471 24.4895 1.1866 24.3176 1.32154 24.1826C1.45647 24.0477 1.62839 23.9558 1.81555 23.9186C2.00271 23.8813 2.19671 23.9005 2.37301 23.9735C2.54931 24.0465 2.7 24.1702 2.80602 24.3288C2.91204 24.4875 2.96863 24.674 2.96863 24.8649C2.96831 25.1207 2.86656 25.3659 2.68568 25.5468C2.50481 25.7277 2.25958 25.8294 2.00378 25.8297ZM36.9608 24.8649C36.9608 25.0557 36.9042 25.2422 36.7982 25.4009C36.6922 25.5596 36.5415 25.6832 36.3652 25.7563C36.1889 25.8293 35.9949 25.8484 35.8077 25.8112C35.6206 25.774 35.4487 25.6821 35.3137 25.5471C35.1788 25.4122 35.0869 25.2403 35.0497 25.0531C35.0124 24.8659 35.0315 24.6719 35.1046 24.4956C35.1776 24.3193 35.3013 24.1687 35.4599 24.0626C35.6186 23.9566 35.8051 23.9 35.996 23.9C36.2518 23.9003 36.497 24.0021 36.6779 24.183C36.8587 24.3639 36.9605 24.6091 36.9608 24.8649ZM31.8367 1.90635C32.0276 1.90635 32.2141 1.96293 32.3728 2.06895C32.5314 2.17497 32.6551 2.32566 32.7281 2.50196C32.8012 2.67826 32.8203 2.87226 32.783 3.05942C32.7458 3.24658 32.6539 3.4185 32.519 3.55344C32.3841 3.68837 32.2121 3.78026 32.025 3.81749C31.8378 3.85472 31.6438 3.83562 31.4675 3.76259C31.2912 3.68956 31.1405 3.5659 31.0345 3.40723C30.9285 3.24856 30.8719 3.06202 30.8719 2.87119C30.8722 2.61539 30.974 2.37016 31.1548 2.18929C31.3357 2.00841 31.5809 1.90666 31.8367 1.90635ZM5.19816 2.87119C5.19816 2.68036 5.25475 2.49382 5.36076 2.33515C5.46678 2.17648 5.61747 2.05282 5.79377 1.97979C5.97007 1.90676 6.16407 1.88766 6.35123 1.92488C6.53839 1.96211 6.71031 2.05401 6.84525 2.18894C6.98018 2.32388 7.07208 2.4958 7.10931 2.68296C7.14653 2.87012 7.12743 3.06412 7.0544 3.24042C6.98137 3.41672 6.85771 3.56741 6.69904 3.67343C6.54037 3.77945 6.35383 3.83603 6.163 3.83603C5.90721 3.83572 5.66198 3.73396 5.4811 3.55309C5.30023 3.37221 5.19847 3.12699 5.19816 2.87119ZM5.75124 32.0938C5.56041 32.0938 5.37387 32.0372 5.2152 31.9312C5.05653 31.8252 4.93286 31.6745 4.85984 31.4982C4.78681 31.3219 4.7677 31.1279 4.80493 30.9407C4.84216 30.7535 4.93405 30.5816 5.06899 30.4467C5.20392 30.3118 5.37584 30.2199 5.563 30.1826C5.75017 30.1454 5.94416 30.1645 6.12047 30.2375C6.29677 30.3106 6.44745 30.4342 6.55347 30.5929C6.65949 30.7516 6.71608 30.9381 6.71608 31.1289C6.71576 31.3847 6.61401 31.63 6.43314 31.8108C6.25226 31.9917 6.00703 32.0935 5.75124 32.0938ZM25.5804 27.0537L18.9999 31.5437L12.4193 27.0537C11.096 26.1514 10.0132 24.9394 9.2651 23.5232C8.51699 22.1069 8.12624 20.5294 8.12683 18.9277V9.97006C9.23107 9.8415 10.2595 9.34385 11.0456 8.55776C11.8317 7.77167 12.3294 6.74319 12.4579 5.63895H25.5418C25.6704 6.74319 26.168 7.77167 26.9541 8.55776C27.7402 9.34385 28.7687 9.8415 29.8729 9.97006V18.9277C29.8735 20.5294 29.4828 22.1069 28.7346 23.5232C27.9865 24.9394 26.9037 26.1514 25.5804 27.0537ZM33.2134 31.1289C33.2134 31.3198 33.1568 31.5063 33.0507 31.665C32.9447 31.8236 32.794 31.9473 32.6177 32.0203C32.4414 32.0934 32.2474 32.1125 32.0603 32.0752C31.8731 32.038 31.7012 31.9461 31.5663 31.8112C31.4313 31.6763 31.3394 31.5043 31.3022 31.3172C31.265 31.13 31.2841 30.936 31.3571 30.7597C31.4301 30.5834 31.5538 30.4327 31.7125 30.3267C31.8711 30.2207 32.0577 30.1641 32.2485 30.1641C32.5043 30.1644 32.7495 30.2662 32.9304 30.447C33.1113 30.6279 33.213 30.8731 33.2134 31.1289Z" fill="black"/>
<path d="M27.9434 11.8181C27.9434 11.7176 27.9143 11.6192 27.8595 11.5349C27.8048 11.4506 27.7268 11.3839 27.6349 11.3431C26.0901 10.657 24.8549 9.42185 24.1686 7.87706C24.1278 7.7852 24.0611 7.70716 23.9768 7.65241C23.8925 7.59766 23.7941 7.56855 23.6936 7.5686H14.3061C14.2056 7.56855 14.1072 7.59766 14.0229 7.65241C13.9386 7.70716 13.872 7.7852 13.8311 7.87706C13.145 9.42191 11.9099 10.6571 10.3651 11.3434C10.2733 11.3842 10.1952 11.4509 10.1405 11.5352C10.0858 11.6195 10.0566 11.7178 10.0566 11.8184V18.9276C10.056 20.2154 10.3701 21.4838 10.9716 22.6225C11.5731 23.7612 12.4438 24.7356 13.5078 25.461L18.7079 29.0092C18.7944 29.0676 18.8963 29.0987 19.0006 29.0987C19.1049 29.0987 19.2068 29.0676 19.2933 29.0092L24.4922 25.461C25.5559 24.7357 26.4262 23.7616 27.0276 22.6233C27.629 21.4851 27.9431 20.2171 27.9428 18.9297L27.9434 11.8181ZM26.9043 18.9276C26.9045 20.0458 26.6316 21.147 26.1092 22.1356C25.5869 23.1242 24.8309 23.9702 23.9071 24.6L19 27.9497L14.0927 24.6C13.1689 23.9701 12.413 23.1241 11.8907 22.1355C11.3684 21.1469 11.0955 20.0457 11.0957 18.9276V12.1476C12.6302 11.3852 13.8734 10.1421 14.6359 8.60767H23.3641C24.1266 10.1421 25.3698 11.3852 26.9043 12.1476V18.9276Z" fill="black"/>
</svg>
